<svg width="190" height="32" viewBox="0 0 190 32" fill="none" xmlns="http://www.w3.org/2000/svg">
<path d="M12 5.5C6.20156 5.5 1.5 10.2016 1.5 16C1.5 21.7984 6.20156 26.5 12 26.5C17.7984 26.5 22.5 21.7984 22.5 16C22.5 10.2016 17.7984 5.5 12 5.5ZM12 24.7188C7.18594 24.7188 3.28125 20.8141 3.28125 16C3.28125 11.1859 7.18594 7.28125 12 7.28125C16.8141 7.28125 20.7188 11.1859 20.7188 16C20.7188 20.8141 16.8141 24.7188 12 24.7188Z" fill="#1E2D3D"/>
<path d="M10.875 11.875C10.875 12.1734 10.9935 12.4595 11.2045 12.6705C11.4155 12.8815 11.7016 13 12 13C12.2984 13 12.5845 12.8815 12.7955 12.6705C13.0065 12.4595 13.125 12.1734 13.125 11.875C13.125 11.5766 13.0065 11.2905 12.7955 11.0795C12.5845 10.8685 12.2984 10.75 12 10.75C11.7016 10.75 11.4155 10.8685 11.2045 11.0795C10.9935 11.2905 10.875 11.5766 10.875 11.875ZM12.5625 14.5H11.4375C11.3344 14.5 11.25 14.5844 11.25 14.6875V21.0625C11.25 21.1656 11.3344 21.25 11.4375 21.25H12.5625C12.6656 21.25 12.75 21.1656 12.75 21.0625V14.6875C12.75 14.5844 12.6656 14.5 12.5625 14.5Z" fill="#232323"/>
<path d="M59.125 22H58.5625V14.0312C58.5625 10.7242 56.118 7.99141 52.9375 7.53672V6.625C52.9375 6.10703 52.518 5.6875 52 5.6875C51.482 5.6875 51.0625 6.10703 51.0625 6.625V7.53672C47.882 7.99141 45.4375 10.7242 45.4375 14.0312V22H44.875C44.4602 22 44.125 22.3352 44.125 22.75V23.5C44.125 23.6031 44.2094 23.6875 44.3125 23.6875H49.375C49.375 25.1359 50.5516 26.3125 52 26.3125C53.4484 26.3125 54.625 25.1359 54.625 23.6875H59.6875C59.7906 23.6875 59.875 23.6031 59.875 23.5V22.75C59.875 22.3352 59.5398 22 59.125 22ZM52 24.8125C51.3789 24.8125 50.875 24.3086 50.875 23.6875H53.125C53.125 24.3086 52.6211 24.8125 52 24.8125ZM47.125 22V14.0312C47.125 12.7281 47.6312 11.5047 48.5523 10.5836C49.4734 9.6625 50.6969 9.15625 52 9.15625C53.3031 9.15625 54.5266 9.6625 55.4477 10.5836C56.3687 11.5047 56.875 12.7281 56.875 14.0312V22H47.125Z" fill="#1E2D3D"/>
<circle cx="96" cy="16" r="16" fill="#E3E3E3"/>
<path d="M126.846 18.83H122.59L121.806 21H120.462L123.99 11.298H125.46L128.974 21H127.63L126.846 18.83ZM126.482 17.794L124.718 12.866L122.954 17.794H126.482ZM130.036 17.136C130.036 16.352 130.194 15.666 130.512 15.078C130.829 14.4807 131.263 14.0187 131.814 13.692C132.374 13.3653 132.999 13.202 133.69 13.202C134.287 13.202 134.842 13.342 135.356 13.622C135.869 13.8927 136.261 14.252 136.532 14.7V10.64H137.82V21H136.532V19.558C136.28 20.0153 135.906 20.3933 135.412 20.692C134.917 20.9813 134.338 21.126 133.676 21.126C132.994 21.126 132.374 20.958 131.814 20.622C131.263 20.286 130.829 19.8147 130.512 19.208C130.194 18.6013 130.036 17.9107 130.036 17.136ZM136.532 17.15C136.532 16.5713 136.415 16.0673 136.182 15.638C135.948 15.2087 135.631 14.882 135.23 14.658C134.838 14.4247 134.404 14.308 133.928 14.308C133.452 14.308 133.018 14.42 132.626 14.644C132.234 14.868 131.921 15.1947 131.688 15.624C131.454 16.0533 131.338 16.5573 131.338 17.136C131.338 17.724 131.454 18.2373 131.688 18.676C131.921 19.1053 132.234 19.4367 132.626 19.67C133.018 19.894 133.452 20.006 133.928 20.006C134.404 20.006 134.838 19.894 135.23 19.67C135.631 19.4367 135.948 19.1053 136.182 18.676C136.415 18.2373 136.532 17.7287 136.532 17.15ZM149.199 13.188C149.796 13.188 150.328 13.314 150.795 13.566C151.261 13.8087 151.63 14.1773 151.901 14.672C152.171 15.1667 152.307 15.7687 152.307 16.478V21H151.047V16.66C151.047 15.8947 150.855 15.3113 150.473 14.91C150.099 14.4993 149.591 14.294 148.947 14.294C148.284 14.294 147.757 14.5087 147.365 14.938C146.973 15.358 146.777 15.9693 146.777 16.772V21H145.517V16.66C145.517 15.8947 145.325 15.3113 144.943 14.91C144.569 14.4993 144.061 14.294 143.417 14.294C142.754 14.294 142.227 14.5087 141.835 14.938C141.443 15.358 141.247 15.9693 141.247 16.772V21H139.973V13.328H141.247V14.434C141.499 14.0327 141.835 13.7247 142.255 13.51C142.684 13.2953 143.155 13.188 143.669 13.188C144.313 13.188 144.882 13.3327 145.377 13.622C145.871 13.9113 146.24 14.336 146.483 14.896C146.697 14.3547 147.052 13.9347 147.547 13.636C148.041 13.3373 148.592 13.188 149.199 13.188ZM155.054 12.082C154.812 12.082 154.606 11.998 154.438 11.83C154.27 11.662 154.186 11.4567 154.186 11.214C154.186 10.9713 154.27 10.766 154.438 10.598C154.606 10.43 154.812 10.346 155.054 10.346C155.288 10.346 155.484 10.43 155.642 10.598C155.81 10.766 155.894 10.9713 155.894 11.214C155.894 11.4567 155.81 11.662 155.642 11.83C155.484 11.998 155.288 12.082 155.054 12.082ZM155.67 13.328V21H154.396V13.328H155.67ZM161.58 13.188C162.513 13.188 163.269 13.4727 163.848 14.042C164.426 14.602 164.716 15.414 164.716 16.478V21H163.456V16.66C163.456 15.8947 163.264 15.3113 162.882 14.91C162.499 14.4993 161.976 14.294 161.314 14.294C160.642 14.294 160.105 14.504 159.704 14.924C159.312 15.344 159.116 15.9553 159.116 16.758V21H157.842V13.328H159.116V14.42C159.368 14.028 159.708 13.7247 160.138 13.51C160.576 13.2953 161.057 13.188 161.58 13.188Z" fill="#232323"/>
<path d="M178.94 13.7267L182 16.78L185.06 13.7267L186 14.6667L182 18.6667L178 14.6667L178.94 13.7267Z" fill="#1E2D3D"/>
</svg>
