<svg width="18" height="18" viewBox="0 0 18 18" fill="none" xmlns="http://www.w3.org/2000/svg">
<path d="M17.0625 11.2209L15.7832 10.1272C15.8438 9.7561 15.875 9.3772 15.875 8.99829C15.875 8.61938 15.8438 8.24048 15.7832 7.86938L17.0625 6.77563C17.159 6.69303 17.2281 6.58301 17.2605 6.4602C17.2929 6.3374 17.2872 6.20762 17.2441 6.08813L17.2266 6.03735C16.8744 5.05303 16.347 4.14055 15.6699 3.34399L15.6348 3.30298C15.5526 3.2064 15.4432 3.13698 15.3208 3.10385C15.1984 3.07073 15.0689 3.07546 14.9492 3.11743L13.3613 3.68188C12.7754 3.20142 12.1211 2.82251 11.4141 2.55689L11.1074 0.896728C11.0843 0.771811 11.0237 0.65689 10.9337 0.567232C10.8437 0.477575 10.7285 0.417425 10.6035 0.394775L10.5508 0.38501C9.53321 0.201416 8.46289 0.201416 7.44532 0.38501L7.39258 0.394775C7.26758 0.417425 7.15242 0.477575 7.06241 0.567232C6.97241 0.65689 6.91181 0.771811 6.88868 0.896728L6.58008 2.5647C5.87869 2.83038 5.22552 3.20908 4.64649 3.68579L3.04688 3.11743C2.92728 3.07513 2.79764 3.07023 2.67519 3.10337C2.55274 3.13651 2.44327 3.20613 2.36133 3.30298L2.32618 3.34399C1.6499 4.14111 1.12261 5.05344 0.769535 6.03735L0.751957 6.08813C0.664066 6.33228 0.736332 6.60571 0.933598 6.77563L2.22852 7.8811C2.16797 8.24829 2.13868 8.62329 2.13868 8.99634C2.13868 9.37134 2.16797 9.74634 2.22852 10.1116L0.933598 11.217C0.837105 11.2996 0.768044 11.4097 0.735598 11.5325C0.703151 11.6553 0.708857 11.7851 0.751957 11.9045L0.769535 11.9553C1.12305 12.9397 1.64649 13.8479 2.32618 14.6487L2.36133 14.6897C2.44347 14.7863 2.55294 14.8557 2.67532 14.8888C2.7977 14.9219 2.92724 14.9172 3.04688 14.8752L4.64649 14.3069C5.22852 14.7854 5.87891 15.1643 6.58008 15.428L6.88868 17.0959C6.91181 17.2209 6.97241 17.3358 7.06241 17.4254C7.15242 17.5151 7.26758 17.5753 7.39258 17.5979L7.44532 17.6077C8.47224 17.7922 9.52386 17.7922 10.5508 17.6077L10.6035 17.5979C10.7285 17.5753 10.8437 17.5151 10.9337 17.4254C11.0237 17.3358 11.0843 17.2209 11.1074 17.0959L11.4141 15.4358C12.1208 15.1709 12.7788 14.7907 13.3613 14.3108L14.9492 14.8752C15.0688 14.9175 15.1985 14.9225 15.3209 14.8893C15.4434 14.8562 15.5528 14.7865 15.6348 14.6897L15.6699 14.6487C16.3496 13.8459 16.873 12.9397 17.2266 11.9553L17.2441 11.9045C17.332 11.6643 17.2598 11.3909 17.0625 11.2209ZM14.3965 8.09985C14.4453 8.39478 14.4707 8.69751 14.4707 9.00024C14.4707 9.30298 14.4453 9.60571 14.3965 9.90063L14.2676 10.6838L15.7266 11.9319C15.5054 12.4414 15.2262 12.9238 14.8945 13.3694L13.082 12.7268L12.4688 13.2307C12.002 13.6135 11.4824 13.9143 10.9199 14.1252L10.1758 14.4045L9.82617 16.2991C9.27455 16.3616 8.71764 16.3616 8.16602 16.2991L7.81641 14.4006L7.07813 14.1174C6.52149 13.9065 6.00391 13.6057 5.54102 13.2249L4.92774 12.719L3.10352 13.3674C2.77149 12.9202 2.49414 12.4377 2.27149 11.9299L3.7461 10.6702L3.61914 9.88892C3.57227 9.5979 3.54688 9.29712 3.54688 9.00024C3.54688 8.70142 3.57032 8.40259 3.61914 8.11157L3.7461 7.33032L2.27149 6.07056C2.49219 5.56079 2.77149 5.08032 3.10352 4.63306L4.92774 5.28149L5.54102 4.77563C6.00391 4.39478 6.52149 4.09399 7.07813 3.88306L7.81836 3.60376L8.16797 1.70532C8.7168 1.64282 9.27735 1.64282 9.82813 1.70532L10.1777 3.59985L10.9219 3.87915C11.4824 4.09009 12.0039 4.39087 12.4707 4.77368L13.084 5.27759L14.8965 4.63501C15.2285 5.08228 15.5059 5.5647 15.7285 6.07251L14.2695 7.32056L14.3965 8.09985ZM9 5.36743C7.10157 5.36743 5.5625 6.90649 5.5625 8.80493C5.5625 10.7034 7.10157 12.2424 9 12.2424C10.8984 12.2424 12.4375 10.7034 12.4375 8.80493C12.4375 6.90649 10.8984 5.36743 9 5.36743ZM10.5469 10.3518C10.344 10.5553 10.1029 10.7166 9.8374 10.8266C9.57193 10.9365 9.28734 10.9929 9 10.9924C8.41602 10.9924 7.86719 10.7639 7.45313 10.3518C7.24966 10.1489 7.08831 9.90781 6.97837 9.64233C6.86842 9.37686 6.81206 9.09227 6.8125 8.80493C6.8125 8.22095 7.04102 7.67212 7.45313 7.25806C7.86719 6.84399 8.41602 6.61743 9 6.61743C9.58399 6.61743 10.1328 6.84399 10.5469 7.25806C10.7503 7.46094 10.9117 7.70206 11.0216 7.96753C11.1316 8.233 11.188 8.51759 11.1875 8.80493C11.1875 9.38892 10.959 9.93775 10.5469 10.3518Z" fill="#8C8C8C"/>
</svg>
